
        <svg xmlns="http://www.w3.org/2000/svg" xmlns:xlink="http://www.w3.org/1999/xlink" version="1.1" width="3171.4285714285716" height="2849.9880642043986" viewBox="0 0 3171.4285714285716 2849.9880642043986">
			
			<g transform="scale(8.571428571428573) translate(10, 10)">
				<defs id="SvgjsDefs12944"/><g id="SvgjsG12945" featureKey="5TMTKC-0" transform="matrix(2.745518204202525,0,0,2.745518204202525,87.1447947072026,-4.57677899826876)" fill="#000"><g xmlns="http://www.w3.org/2000/svg"><g><path d="M39.055,19.187c0-0.441,0-0.846,0-1.205c0-2.249-1.014-7.232-2.646-11.112C35.219,3.96,33.676,1.667,32,1.667    c-1.676,0-3.219,2.293-4.41,5.203c-1.632,3.881-2.646,8.908-2.646,11.112c0,0.359,0,0.763,0,1.205L13.788,36.238v2.381h10.275    v2.469h0.882h3.263h1.896v-7.144c0-1.208-0.801-2.243-1.896-2.6c0-4.967,0-10.542,0-13.363c0-1.114,0.135-2.95,0.383-4.994    c1.886-1.858,4.932-1.842,6.854,0.05c0.248,2.012,0.391,3.819,0.391,4.944c0,2.818,0,8.385,0,13.348    c-1.118,0.344-1.94,1.391-1.94,2.615v7.144h1.94h3.219h0.882V38.62h0.044h10.23v-2.381L39.055,19.187z M20.182,36.371    c-1.096,0-1.984-0.888-1.984-1.984s0.888-1.984,1.984-1.984c1.096,0,1.984,0.888,1.984,1.984S21.278,36.371,20.182,36.371z     M29.145,9.24c0.144-0.814,0.302-1.614,0.474-2.37h4.807c0.163,0.755,0.316,1.553,0.457,2.363    C33.041,8.522,30.984,8.524,29.145,9.24z M43.818,36.371c-1.096,0-1.984-0.888-1.984-1.984s0.888-1.984,1.984-1.984    s1.984,0.888,1.984,1.984S44.914,36.371,43.818,36.371z"/><path d="M39.981,42.209h-6.085v2.602h3.554c0.094,0.14,0.187,0.282,0.275,0.426c0.517,0.846,0.604,1.735,0.215,2.656    c-0.179,0.423-0.363,0.845-0.556,1.262c-0.559,1.21-0.84,2.474-0.736,3.811c0.023,0.293,0.058,0.585,0.088,0.877    c-0.469-0.908-0.925-1.819-1.356-2.742c-0.431-0.922-0.836-1.855-1.244-2.763c-0.769,3.427-1.693,6.844-3.004,10.145    c0.053-0.566,0.128-1.126,0.187-1.688c0.133-1.271,0.166-2.54-0.041-3.808c-0.18-1.1-0.6-2.09-1.301-2.959    c-0.023-0.029-0.055-0.051-0.095-0.088c-0.031,0.077-0.056,0.136-0.079,0.195c-0.382,0.985-0.808,1.949-1.343,2.862    c-0.323,0.55-0.678,1.079-1.148,1.519c-0.111,0.104-0.234,0.193-0.352,0.289c-0.01-0.011-0.021-0.021-0.031-0.032    c0.306-0.496,0.467-1.043,0.552-1.612c0.136-0.915,0.05-1.823-0.119-2.726c-0.195-1.039-0.513-2.045-0.848-3.046    c-0.269-0.805-0.408-1.622-0.305-2.47c0.004-0.037,0.01-0.073,0.015-0.109h3.923v-2.602h-6.085v2.602h1.256    c-0.011,0.023-0.025,0.045-0.036,0.069c-0.759,1.618-0.886,3.251-0.113,4.911c0.353,0.758,0.668,1.532,0.889,2.342    c0.378,1.386,0.349,2.749-0.203,4.087c-0.362,0.877-0.89,1.649-1.533,2.339c-0.385,0.413-0.801,0.797-1.207,1.199    c2.808-1.219,4.927-3.176,6.351-5.95c0.898,2.817,1.41,5.61,0.766,8.527c0.032-0.029,0.05-0.042,0.065-0.06    c0.068-0.081,0.138-0.161,0.203-0.245c0.678-0.883,1.134-1.887,1.55-2.908c0.828-2.033,1.427-4.139,1.944-6.27    c0.075-0.309,0.147-0.618,0.221-0.927c0.978,2.576,1.996,5.116,3.709,7.355c-0.036-0.528-0.082-1.009-0.099-1.492    c-0.069-1.921,0.261-3.776,0.926-5.578c0.308-0.833,0.582-1.679,0.848-2.527c0.092-0.294,0.114-0.61,0.168-0.916    c0-0.224,0-0.448,0-0.672c-0.012-0.063-0.024-0.126-0.036-0.189c-0.054-0.295-0.09-0.595-0.165-0.885    c-0.203-0.788-0.555-1.51-0.957-2.21h1.374V42.209z"/></g><polygon points="16.164,19.414 16.53,20.558 17.72,20.558 16.759,21.245 17.125,22.343 16.164,21.656 15.203,22.343 15.569,21.245    14.608,20.558 15.798,20.558  "/><polygon points="46.326,11.45 47.058,13.647 49.392,13.647 47.516,15.02 48.202,17.263 46.326,15.89 44.449,17.263 45.181,15.02    43.259,13.647 45.593,13.647  "/><polygon points="18.224,6.187 18.91,8.429 21.244,8.429 19.368,9.802 20.1,11.999 18.224,10.626 16.301,11.999 17.034,9.802    15.157,8.429 17.491,8.429  "/><polygon points="47.308,22.757 47.747,24.076 49.066,24.076 48.011,24.867 48.363,26.185 47.308,25.394 46.165,26.185    46.605,24.867 45.462,24.076 46.868,24.076  "/></g></g><g id="SvgjsG12946" featureKey="nameFeature-0" transform="matrix(3.85888820258692,0,0,3.85888820258692,58.369280151097,164.07820385582633)" fill="#000"><path d="M2.5946 19.34 l7.4854 -0.000019531 c0.18 0 0.32 0.14 0.32 0.32 s-0.14 0.34 -0.32 0.34 l-8.54 0 c-0.18 0 -0.34 -0.16 -0.3394 -0.3594 c-0.00039062 -0.0067968 -0.00058594 -0.013789 -0.00058594 -0.020586 l0 -13.3 c0 -0.18 0.14 -0.32 0.34 -0.32 l8.54 0 c0.18 0 0.32 0.14 0.32 0.34 c0 0.05539 -0.013398 0.10719 -0.036992 0.15219 c-0.0074024 0.036796 -0.021406 0.073204 -0.043008 0.10781 l-4.0628 6.7 l2.8828 0 c0.18 0 0.32 0.16 0.32 0.34 s-0.14 0.32 -0.32 0.32 l-3.283 0 z M1.86 19.25498 l7.6374 -12.595 l-1.3518 0 l-0.025606 0.06 l-6.26 10 l0 2.535 z M7.365 6.66 l-5.505 0 l0 8.8044 z M14.4706 8.382 l8.4094 9.758 c0.1 0.14 0.1 0.34 -0.04 0.44 c-0.028204 0.028204 -0.060606 0.047402 -0.093398 0.06 c-1.1652 0.9412 -2.5576 1.44 -4.0266 1.44 c-3.72 0 -6.72 -3.18 -6.72 -7.08 s3 -7.06 6.72 -7.06 c1.5 0 2.92 0.5 4.1 1.46 c0.14 0.12 0.16 0.32 0.06 0.46 c-0.12 0.14 -0.32 0.16 -0.44 0.04 c-1.08 -0.88 -2.36 -1.34 -3.72 -1.34 c-1.6496 0 -3.1496 0.6942 -4.2494 1.822 z M22.176 18.2998 l-8.123 -9.4448 c-0.2528 0.3168 -0.4774 0.6598 -0.6694 1.0244 l7.937 8.9388 c0.2954 -0.1482 0.5812 -0.3214 0.8554 -0.5184 l-0.000019531 0 z M12.6198 13 c0 3.54 2.74 6.44 6.1 6.44 c0.6826 0 1.3452 -0.1208 1.9724 -0.35 l-7.5886 -8.6056 c-0.3114 0.7726 -0.4838 1.6228 -0.4838 2.5156 l0 0 z M32.67999999999999 19.36 l1.5198 -0.000019531 c0.18 0 0.32 0.14 0.32 0.32 c0 0.2 -0.14 0.34 -0.32 0.34 l-8.5 0 c-0.14619 0 -0.2662 -0.092598 -0.3058 -0.23458 c-0.021992 -0.043398 -0.033984 -0.092598 -0.033984 -0.14539 l0 -13.3 c0 -0.2 0.14 -0.34 0.34 -0.34 c0.18 0 0.32 0.14 0.32 0.34 l0 13.02 l1.24 0 l0 -13.02 c0 -0.2 0.16 -0.34 0.34 -0.34 s0.34 0.14 0.34 0.34 l0 7.7074 z M27.939799999999998 19.35998 l3.8474 0 l-3.8474 -4.3124 l0 4.3124 z M46.112 6.2490000000000006 c0.03039 0.0492 0.048028 0.1076 0.048028 0.171 l-0.00019531 8.1864 c-0.013594 3.0478 -2.3884 5.5134 -5.3198 5.5134 c-2.9116 0 -5.3062 -2.4656 -5.3202 -5.52 l0 -8.18 c0 -0.18 0.14 -0.32 0.32 -0.32 c0.2 0 0.34 0.14 0.34 0.32 l0 8.0702 l9.4 -8.3902 c0.14 -0.12 0.34 -0.12 0.46 0.02 c0.033808 0.039394 0.058008 0.083398 0.072206 0.1292 z M36.34 15.2402 l-0.10979 0.057812 c0.063594 0.4512 0.18619 0.8826 0.35898 1.2854 l8.9108 -7.7484 l0 -1.7896 z M40.84 19.48 c2.58 0 4.66 -2.18 4.66 -4.88 l0 -4.9016 l-8.5976 7.495 c0.8286 1.3726 2.2876 2.2866 3.9376 2.2866 z M58.28 6.68 l-3.252 2.8326 c2.7672 0.5346 4.7354 3.0258 4.4518 5.7672 c-0.22 2.26 -1.92 4.1 -4.22 4.6 l-0.06 0.02 c-0.1918 0.048008 -0.3964 0.083204 -0.583 0.09541 l-0.056796 0.0048046 l-0.08 0 l-0.1 0 l-5.48 0 c-0.18 0 -0.34 -0.14 -0.34 -0.32 l0.00060546 -0.020996 c-0.00039062 -0.0064062 -0.00058594 -0.012598 -0.00058594 -0.019004 l0 -13.3 c0 -0.18 0.16 -0.34 0.34 -0.34 s0.32 0.16 0.32 0.34 l0 13 l1.26 0 l0 -13.008 c0.0043946 -0.1766 0.14279 -0.3316 0.3294 -0.3314 l0.010586 -0.00019531 l7.32 0 c0.18 0 0.32 0.16 0.32 0.34 c0 0.099004 -0.042402 0.19201 -0.11041 0.2556 c-0.017207 0.0308 -0.04041 0.059394 -0.06961 0.084394 z M57.266 6.68 l-6.126 0 l0 5.3366 z M54.48 10.0998 l-0.099004 -0.023398 l-3.241 2.8234 l0 1.5898 l4.677 -4.0632 c-0.418 -0.165 -0.8666 -0.2772 -1.337 -0.3266 z M58.82 15.2198 c0.2044 -1.8688 -0.785 -3.5884 -2.3688 -4.4896 c-0.017402 0.033204 -0.041212 0.063594 -0.071406 0.08959 l-5.2 4.5 l-0.04 0.034804 l0 3.9852 l3.2116 0 l0.068398 0 l0.13561 0 c0.17141 -0.013809 0.38022 -0.069004 0.5046 -0.1 l0.06 0 c2.02 -0.44 3.5 -2.06 3.7 -4.02 l0 -0.000019531 z"/></g><g id="SvgjsG12947" featureKey="sloganFeature-0" transform="matrix(3.0275664081834677,0,0,3.0275664081834677,-2.387483913545619,241.82732469889459)" fill="#000"><path d="M13.81 19.7638 c-1.4648 0 -2.8224 -0.89386 -2.8224 -2.4536 c-0.5508 1.3504 -1.5178 2.197 -2.9072 2.197 c-1.799 0 -3.433 -1.2662 -3.433 -4.0082 c0 -2.647 1.6152 -4.0178 3.4332 -4.0178 c1.446 0 2.394 0.9244 2.907 2.1982 l0 -2.05 l1.6526 0 l0 5.6642 c0 1.3396 0.574 2.016 1.3866 2.016 c1.1032 0 2.3418 -1.1154 2.3418 -4.3606 c0 -4.3626 -2.8798 -7.1662 -7.0632 -7.1662 c-4.194 0 -7.0832 2.9834 -7.0832 7.5574 s2.8892 7.5574 7.0832 7.5574 c0.3078 0 0.31818 0.445 -0.000019531 0.445 c-4.446 0 -8.5168 -3.1766 -8.5168 -8.0026 s4.0708 -8.0026 8.5168 -8.0026 c4.426 0 8.4968 3.0062 8.4968 7.6112 c0 3.6456 -2.1942 4.8152 -3.9922 4.8152 z M8.5676 18.9715 c1.2928 0 2.448 -1.6388 2.448 -3.462 c0 -1.8892 -1.1928 -3.4926 -2.448 -3.4926 c-1.2126 0 -2.149 0.9172 -2.149 3.482 c0 2.566 0.9364 3.4726 2.149 3.4726 z M37.172 6.82 c0.13539 0 0.23198 0.096192 0.23198 0.23158 c0 0.126 -0.096602 0.2226 -0.232 0.2226 l-0.5424 0 c-0.38 0 -0.6576 0.13881 -0.7848 0.55202 l-3.852 12.221 l-0.6052 0 l-3.351 -9.6362 l-2.9712 9.6362 l-0.6052 0 l-4.2622 -12.221 c-0.15779 -0.4236 -0.4544 -0.5518 -0.70718 -0.5518 l-0.58721 0 c-0.13539 0 -0.232 -0.096602 -0.232 -0.232 c0 -0.126 0.096602 -0.2226 0.232 -0.2226 l4.9638 0 c0.13539 0 0.232 0.096602 0.232 0.232 c0 0.126 -0.096602 0.2226 -0.232 0.2226 l-0.8174 0 c-0.3584 0 -0.5304 0.2328 -0.42578 0.552 l3.0028 8.9446 l3.0636 -9.951 l0.5298 0 l3.3218 9.9214 l2.7716 -8.9148 c0.1016 -0.3098 -0.062598 -0.55202 -0.3942 -0.55202 l-0.84801 0 c-0.13539 0 -0.232 -0.096602 -0.232 -0.232 c0 -0.126 0.096602 -0.2226 0.232 -0.2226 l3.1004 0 z M51.023 19.5456 c0.13539 0 0.232 0.096836 0.232 0.22284 c0 0.13539 -0.096602 0.232 -0.232 0.232 l-4.2666 0 c-0.13539 0 -0.232 -0.096602 -0.232 -0.232 c0 -0.126 0.096602 -0.2226 0.232 -0.2226 l0.43859 0 c0.3298 0 0.5596 -0.2406 0.5596 -0.51522 l0 -5.7502 l-6.2238 0 l0 5.7464 c0 0.2738 0.2278 0.519 0.5594 0.519 l0.43859 0 c0.13539 0 0.232 0.096602 0.232 0.2226 c0 0.13539 -0.096602 0.232 -0.232 0.232 l-4.2666 0 c-0.13539 0 -0.232 -0.096602 -0.232 -0.232 c0 -0.126 0.096602 -0.2226 0.232 -0.2226 l0.43859 0 c0.3298 0 0.5596 -0.2406 0.5596 -0.51522 l0 -11.237 c0 -0.2756 -0.2278 -0.519 -0.5594 -0.519 l-0.43859 0 c-0.13539 0 -0.232 -0.096602 -0.232 -0.2226 c0 -0.13539 0.096602 -0.232 0.232 -0.232 l4.2666 0 c0.13539 0 0.232 0.096602 0.232 0.232 c0 0.126 -0.096602 0.2226 -0.232 0.2226 l-0.43859 0 c-0.3298 0 -0.5596 0.2434 -0.5596 0.5152 l0 5.036 l6.2238 0 l0 -5.0324 c0 -0.2756 -0.2278 -0.519 -0.5594 -0.519 l-0.43859 0 c-0.13539 0 -0.232 -0.096602 -0.232 -0.2226 c0 -0.13539 0.096602 -0.232 0.232 -0.232 l4.2666 0 c0.13539 0 0.232 0.096602 0.232 0.232 c0 0.126 -0.096602 0.2226 -0.232 0.2226 l-0.43859 0 c-0.3298 0 -0.5596 0.2434 -0.5596 0.5152 l0 11.237 c0 0.2738 0.2278 0.519 0.5594 0.519 l0.43859 0 z M65.206 19.5456 c0.126 0 0.2318 0.096602 0.2318 0.232 c0 0.126 -0.106 0.2226 -0.232 0.2226 l-5.0956 0 c-0.126 0 -0.232 -0.096602 -0.232 -0.2226 c0 -0.13539 0.106 -0.232 0.232 -0.232 l0.72 0 c0.4048 0 0.63702 -0.3066 0.48002 -0.7 l-1.1866 -2.9794 l-4.9056 0 l-1.1738 2.9794 c-0.14 0.3638 0.080996 0.7 0.48 0.7 l0.72 0 c0.126 0 0.232 0.096602 0.232 0.232 c0 0.126 -0.106 0.2226 -0.232 0.2226 l-3.1404 0 c-0.126 0 -0.232 -0.096602 -0.232 -0.2226 c0 -0.13539 0.106 -0.232 0.232 -0.232 l0.48 0 c0.52 0 0.7506 -0.26 0.92 -0.7 l4.8142 -12.114 l0.6052 0 l4.8628 12.134 c0.14939 0.36 0.42 0.68 0.98 0.68 l0.44 0 z M55.400600000000004 15.421199999999999 l4.5414 0 l-2.2806 -5.734 z M77.751 19.1152 l-0.0011914 0 c0.1166 0 0.1848 0.087208 0.1848 0.19441 c0 0.3382 -0.7938 0.8518 -1.7756 0.8518 c-4.5122 0 -0.5754 -6.3774 -5.8746 -6.3774 l-0.73561 0 l0 5.2426 c0 0.2738 0.2278 0.519 0.5594 0.519 l0.43859 0 c0.13539 0 0.232 0.096602 0.232 0.2226 c0 0.13539 -0.096602 0.232 -0.232 0.232 l-4.2666 0 c-0.13539 0 -0.232 -0.096602 -0.232 -0.232 c0 -0.126 0.096602 -0.2226 0.232 -0.2226 l0.43859 0 c0.3298 0 0.5596 -0.2406 0.5596 -0.51522 l0 -11.237 c0 -0.2756 -0.2278 -0.519 -0.5594 -0.519 l-0.43859 0 c-0.13539 0 -0.232 -0.096602 -0.232 -0.2226 c0 -0.13539 0.096602 -0.232 0.232 -0.232 l5.129 0 c2.9208 0 4.6748 1.1214 4.6748 3.2414 c0 1.806 -1.4124 3.0664 -3.7948 3.436 c5.0414 0.7966 2.5904 6.0152 4.4982 6.0152 c0.5658 0 0.728 -0.3974 0.9634 -0.3974 z M69.5482 13.32 l1.1428 -0.00017578 c2.3078 0 2.9992 -1.6786 2.9992 -3.202 c0 -1.6538 -0.8328 -2.8434 -3.0292 -2.8434 l-0.5532 0 c-0.3298 0 -0.5596 0.2434 -0.5596 0.5152 l0 5.5304 z M89.021 6.82 l0.00039062 3.5166 c0 0.13539 -0.096602 0.232 -0.232 0.232 c-0.126 0 -0.2226 -0.096602 -0.2226 -0.232 l0 -0.56641 c0 -1.38 -0.82 -2.4956 -2.46 -2.4956 l-0.786 0 c-0.3298 0 -0.5596 0.2434 -0.5596 0.5152 l0 11.237 c0 0.2738 0.2278 0.519 0.5594 0.519 l0.43859 0 c0.13539 0 0.232 0.096602 0.232 0.2226 c0 0.13539 -0.096602 0.232 -0.232 0.232 l-4.2666 0 c-0.13539 0 -0.232 -0.096602 -0.232 -0.232 c0 -0.126 0.096602 -0.2226 0.232 -0.2226 l0.43859 0 c0.3298 0 0.5596 -0.2406 0.5596 -0.51522 l0 -11.237 c0 -0.2756 -0.2278 -0.519 -0.5594 -0.519 l-0.5726 0 c-1.7458 0 -2.6716 1.0098 -2.6716 2.707 l0 0.355 c0 0.13539 -0.096602 0.232 -0.232 0.232 c-0.126 0 -0.2226 -0.096602 -0.2226 -0.232 l0 -3.5166 l10.788 0 z M96.723 6.663 c3.9616 0 6.3786 2.8836 6.3786 6.7036 s-2.417 6.7988 -6.3786 6.7988 c-3.971 0 -6.3786 -2.9788 -6.3786 -6.7988 s2.4076 -6.7036 6.3786 -6.7036 z M96.723 19.6904 c2.9372 0 3.9192 -2.9632 3.9192 -6.3232 s-0.982 -6.228 -3.9192 -6.228 s-3.9192 2.868 -3.9192 6.228 s0.982 6.3232 3.9192 6.3232 z M116.161 6.82 c0.13539 0 0.23198 0.096602 0.23198 0.2226 c0 0.13539 -0.096602 0.232 -0.232 0.232 l-0.43859 0 c-0.3448 0 -0.5614 0.266 -0.5614 0.552 l0 12.174 l-1.0878 0 l-7.7032 -10.871 l0 9.865 c0 0.286 0.2166 0.552 0.5614 0.552 l0.43859 0 c0.13539 0 0.232 0.096602 0.232 0.232 c0 0.126 -0.096602 0.2226 -0.232 0.2226 l-2.5298 0 c-0.13539 0 -0.232 -0.096602 -0.232 -0.2226 c0 -0.13539 0.096602 -0.232 0.232 -0.232 l0.43859 0 c0.3448 0 0.5614 -0.266 0.5614 -0.552 l0 -11.167 c0 -0.286 -0.2166 -0.552 -0.5614 -0.552 l-0.43859 0 c-0.13539 0 -0.232 -0.096602 -0.232 -0.232 c0 -0.126 0.096602 -0.2226 0.232 -0.2226 l2.5138 0 l7.2772 10.253 l0 -9.2466 c0 -0.286 -0.2166 -0.552 -0.5614 -0.552 l-0.43859 0 c-0.13539 0 -0.232 -0.096602 -0.232 -0.232 c0 -0.126 0.096602 -0.2226 0.232 -0.2226 l2.5298 0 z"/></g>
			</g>
		</svg>
	